
<svg xmlns="http://www.w3.org/2000/svg" version="1.1" xmlns:xlink="http://www.w3.org/1999/xlink" preserveAspectRatio="none" x="0px" y="0px" width="32px" height="32px" viewBox="0 0 32 32">
<defs/>

<g id="Layer_1">
<g>
<g>
<g>
<path fill="#000000" stroke="none" d="
M 27.65 27.8
L 23 27.8 23 32 23.7 32 27.65 28.4 27.65 27.8
M 22.3 32
L 22.3 27.15 27.65 27.15 27.65 0 4.45 0 4.45 32 22.3 32
M 21.85 5.15
L 23.55 5.15 20.7 13 19 13 16.2 5.15 17.9 5.15 19.9 10.95 21.85 5.15
M 23.65 22.4
L 23.65 24.45 8.6 24.45 8.6 22.4 23.65 22.4
M 23.65 17.3
L 23.65 19.35 8.6 19.35 8.6 17.3 23.65 17.3
M 12.45 5
Q 13.9 5 14.8 5.85 15.35 6.35 15.6 7.3
L 14.05 7.65
Q 13.9 7.05 13.45 6.7 13 6.35 12.4 6.35 11.5 6.35 10.95 7 10.4 7.6 10.4 9 10.4 10.5 10.95 11.15 11.5 11.8 12.35 11.8 13 11.8 13.45 11.35 13.9 10.95 14.1 10.1
L 15.65 10.6
Q 15.3 11.9 14.45 12.5 13.65 13.15 12.35 13.15 10.8 13.15 9.8 12.05 8.75 11 8.75 9.15 8.75 7.15 9.8 6.1 10.8 5 12.45 5 Z"/>
</g>
</g>
</g>
</g>

<g id="Layer_2"/>
</svg>
